<svg xmlns="http://www.w3.org/2000/svg" xmlns:xlink="http://www.w3.org/1999/xlink" width="406" height="305.54" viewBox="0 0 406 305.54"><defs><style>.a{fill:#e8f6ff;}.b{fill:#7a91fa;}.c{fill:#2539e5;}.d{fill:url(#a);}.e{fill:#fff;}.f{fill:none;stroke:#fff;stroke-linecap:round;stroke-linejoin:round;stroke-width:6px;}.g{fill:#fac823;}</style><linearGradient id="a" y1="0.5" x2="1" y2="0.5" gradientUnits="objectBoundingBox"><stop offset="0" stop-color="#ff002b"/><stop offset="1" stop-color="#ff2cdb"/></linearGradient></defs><rect class="a" width="406" height="294" rx="30" transform="translate(0 11.54)"/><path class="b" d="M363.28,23.7h0a11.86,11.86,0,0,1,11.85-11.85h0A11.85,11.85,0,0,1,363.28,0h0a11.85,11.85,0,0,1-11.85,11.85h0A11.86,11.86,0,0,1,363.28,23.7Z"/><path class="b" d="M351.71,91h0a7.67,7.67,0,0,1,7.67-7.67h0a7.66,7.66,0,0,1-7.67-7.67h0A7.67,7.67,0,0,1,344,83.32h0A7.68,7.68,0,0,1,351.71,91Z"/><path class="b" d="M270.12,35.06h0a7.66,7.66,0,0,1,7.67-7.67h0s-7.67-3.44-7.67-7.68h0s-3.44,7.68-7.67,7.68h0a7.66,7.66,0,0,1,7.67,7.67Z"/><path class="b" d="M20,243.91h0a11.86,11.86,0,0,1,11.85-11.85h0A11.85,11.85,0,0,1,20,220.21h0A11.85,11.85,0,0,1,8.11,232.06h0A11.85,11.85,0,0,1,20,243.91Z"/><path class="b" d="M69.9,273h0a7.68,7.68,0,0,1,7.67-7.68h0a7.67,7.67,0,0,1-7.67-7.67h0a7.66,7.66,0,0,1-7.67,7.67h0A7.67,7.67,0,0,1,69.9,273Z"/><path class="b" d="M54.62,201.34h0a7.67,7.67,0,0,1,7.67-7.68h0A7.66,7.66,0,0,1,54.62,186h0a7.67,7.67,0,0,1-7.68,7.67h0a7.68,7.68,0,0,1,7.68,7.67Z"/><rect class="c" width="239.84" height="177.47" rx="11.77" transform="translate(93.31 69.81)"/><rect class="d" width="239.84" height="177.47" rx="11.77" transform="translate(93.31 69.81)"/><path class="c" d="M105.09,69.81H321.38a11.77,11.77,0,0,1,11.77,11.77h0V94H93.31V81.58a11.77,11.77,0,0,1,11.78-11.77Z"/><path class="e" d="M112.57,81.9a3.22,3.22,0,1,1-3.22-3.22,3.22,3.22,0,0,1,3.22,3.22Z"/><path class="e" d="M124.26,81.9a3.241,3.241,0,1,0-.04,0Z"/><path class="e" d="M136,81.9a3.22,3.22,0,1,1-.947-2.28A3.23,3.23,0,0,1,136,81.9Z"/><path class="f" d="M305.94,153.9a19.08,19.08,0,0,0-37-2"/><circle class="f" cx="9" cy="9" r="9" transform="translate(278.19 118.19)"/><rect class="f" width="41.65" height="42.51" rx="1.92" transform="translate(266.37 111.39)"/><line class="f" x2="132.79" transform="translate(115.89 115.22)"/><line class="f" x2="132.79" transform="translate(115.89 134.59)"/><line class="f" x2="99.34" transform="translate(115.89 153.97)"/><path class="e" d="M167.74,191.81a2,2,0,0,1,2,2v27.65a2,2,0,0,1-2,2H120.88a2,2,0,0,1-2-2V193.8a2,2,0,0,1,2-2h46.86m0-6H120.88a8,8,0,0,0-8,8v27.65a8,8,0,0,0,8,8h46.86a8,8,0,0,0,8-8V193.8A8,8,0,0,0,167.74,185.8Z"/><path class="e" d="M236.66,191.81a2,2,0,0,1,2,2v27.65a2,2,0,0,1-2,2H189.8a2,2,0,0,1-2-2V193.8a2,2,0,0,1,2-2h46.86m0-6H189.8a8,8,0,0,0-8,8v27.65a8,8,0,0,0,8,8h46.86a8,8,0,0,0,8-8V193.8A8,8,0,0,0,236.66,185.8Z"/><path class="e" d="M305.59,191.81a2,2,0,0,1,2,2v27.65a2,2,0,0,1-2,2H258.73a2,2,0,0,1-2-2V193.8a2,2,0,0,1,2-2h46.86m0-6H258.73a8,8,0,0,0-8,8v27.65a8,8,0,0,0,8,8h46.86a8,8,0,0,0,8-8V193.8A8,8,0,0,0,305.59,185.8Z"/><circle class="c" cx="46.18" cy="46.18" r="46.18" transform="translate(282.45 139.11)"/><path class="e" d="M320.59,203.92l-14.18-13.83a4.77,4.77,0,0,1-.08-6.74h0a4.77,4.77,0,0,1,6.74-.08l7,6.85a4.77,4.77,0,0,0,6.9-.25l17.22-19.41a4.76,4.76,0,0,1,6.73-.4h0a4.76,4.76,0,0,1,.4,6.73l-23.86,26.88a4.76,4.76,0,0,1-6.87.25Z"/><path class="g" d="M156.47,177.9l-12.58-6.62H36.31a5.12,5.12,0,0,1-5.12-5.12V129.4a5.12,5.12,0,0,1,5.12-5.12H151.36a5.11,5.11,0,0,1,5.11,5.12Z"/><line class="f" x1="93.21" transform="translate(47.23 139.83)"/><line class="f" x1="52.68" transform="translate(47.23 155.14)"/></svg>