<svg xmlns="http://www.w3.org/2000/svg" xmlns:xlink="http://www.w3.org/1999/xlink" width="406" height="307.93" viewBox="0 0 406 307.93"><defs><style>.a,.o,.s,.t,.x{fill:none;}.b{fill:#fb9900;}.c{fill:#fff3e8;}.d{fill:#fccd0a;}.e,.g,.h,.i,.j{fill-rule:evenodd;}.e{fill:url(#a);}.f{fill:#2539e5;}.g{fill:url(#b);}.h{fill:url(#c);}.i{fill:url(#d);}.j{fill:url(#e);}.k{fill:#fac823;}.l{fill:#1000af;}.m{fill:url(#f);}.n{clip-path:url(#g);}.o,.s,.t{stroke:#fff;}.o,.t{stroke-linejoin:bevel;}.o,.s{stroke-width:4px;}.p{fill:#ffb7b3;}.q{fill:url(#h);}.r{clip-path:url(#i);}.s,.x{stroke-miterlimit:10;}.t{stroke-width:4.05px;}.u{fill:#fbb304;}.v{clip-path:url(#j);}.w{fill:#fc7b20;}.x{stroke:#fb9900;stroke-width:0.55px;}.y,.z{fill:#fff;}.y{font-size:29px;font-family:Poppins-Medium, Poppins;font-weight:500;}</style><linearGradient id="a" x1="0.897" y1="-0.051" x2="0.272" y2="0.816" gradientUnits="objectBoundingBox"><stop offset="0" stop-color="#ff2cdb"/><stop offset="1" stop-color="#ff002b"/></linearGradient><linearGradient id="b" x1="5.955" y1="-0.41" x2="-24.358" y2="4.538" gradientUnits="objectBoundingBox"><stop offset="0" stop-color="#ff2cdb"/><stop offset="1" stop-color="#ff8b26"/></linearGradient><linearGradient id="c" x1="12.063" y1="-3.051" x2="-20.722" y2="7.12" xlink:href="#b"/><linearGradient id="d" x1="17.637" y1="-6.991" x2="-19.913" y2="9.537" xlink:href="#b"/><linearGradient id="e" x1="0.708" y1="-1.623" x2="-0.615" y2="10.554" xlink:href="#a"/><linearGradient id="f" x1="0.133" y1="0.871" x2="0.869" y2="0.127" xlink:href="#b"/><clipPath id="g"><path class="a" d="M224.26,278.89c-6.38-12.64-5.71-32-5.11-49.42.1-2.82.19-5.57.25-8.19.07-3.18.18-6.2.29-9.06.4-11,.78-21.36-2.33-24.27-1-1-3.11-1.46-6.21-1.46H161.57c2.25,6.68,1.93,15.4,1.54,26.17q-.17,4.22-.29,8.9c0,2.66-.15,5.46-.25,8.33-.57,16.77-1.37,39.75,6.29,46.94a7.93,7.93,0,0,0,5.84,2.07Z"/></clipPath><linearGradient id="h" x1="0.123" y1="0.86" x2="0.863" y2="0.154" xlink:href="#b"/><clipPath id="i"><path class="a" d="M313.48,280.13c-4.46-8.77-5-22-4.31-42l.18-4.83c1-27.06,2.67-72.35-10.74-84.95a9.64,9.64,0,0,0-7.09-2.83H225c11.88,18.83,10.36,54,9.12,82.92-.15,3.51-.3,6.89-.41,10.08-.72,20.3-.15,33.83,4.88,38.56,1.37,1.28,4.15,3,12.41,3Z"/></clipPath><clipPath id="j"><path class="b" d="M94.42,179.15,92.57,185a2.05,2.05,0,0,1-.76,1l-4.94,3.57a2.08,2.08,0,0,0,0,3.37l5,3.55a2.05,2.05,0,0,1,.76,1.05l1.88,5.8a2.07,2.07,0,0,0,3.2,1l4.91-3.61a2,2,0,0,1,1.23-.41h6.1a2.07,2.07,0,0,0,2-2.73L110,191.87a2.11,2.11,0,0,1,0-1.29l1.9-5.8a2.08,2.08,0,0,0-2-2.72h-6.1a2.08,2.08,0,0,1-1.23-.4l-4.93-3.59a2.07,2.07,0,0,0-3.22,1.08Z"/></clipPath></defs><rect class="c" width="406" height="294" rx="30" transform="translate(0 13.93)"/><path class="d" d="M41.91,59.83h0A11.84,11.84,0,0,1,30.07,71.67h0A11.84,11.84,0,0,1,41.91,83.51h0A11.85,11.85,0,0,1,53.76,71.67h0A11.85,11.85,0,0,1,41.91,59.83Z"/><path class="d" d="M74.41,120.39h0a7.66,7.66,0,0,1-7.66,7.67h0a7.67,7.67,0,0,1,7.66,7.67h0a7.68,7.68,0,0,1,7.67-7.67h0a7.67,7.67,0,0,1-7.67-7.67Z"/><path class="d" d="M345.45,27.65h0a13.82,13.82,0,0,1,13.82-13.82h0A13.83,13.83,0,0,1,345.45,0h0a13.83,13.83,0,0,1-13.83,13.83h0A13.83,13.83,0,0,1,345.45,27.65Z"/><path class="d" d="M351.16,170.43h0a10.74,10.74,0,0,1,10.74-10.75h0a10.74,10.74,0,0,1-10.74-10.74h0a10.76,10.76,0,0,1-10.74,10.75h0a10.74,10.74,0,0,1,10.74,10.74Z"/><path class="d" d="M280.61,61.85h0a9,9,0,0,1,8.95-9h0a9,9,0,0,1-8.95-9h0a9,9,0,0,1-8.95,9h0a8.94,8.94,0,0,1,8.95,9Z"/><path class="e" d="M242.27,63.77V267.2c0,10-8.48,18.13-19,18.13H129.78c-10.47,0-19-8.12-19-18.13V63.77c0-10,8.48-18.13,19-18.13h93.54C233.79,45.64,242.27,53.76,242.27,63.77Z"/><rect class="f" width="118.3" height="225.06" rx="12.23" transform="translate(117.4 52.95)"/><path class="g" d="M242.61,130.72h-1.1v-48h1.1a2.43,2.43,0,0,1,2.48,2.37v43.25a2.43,2.43,0,0,1-2.48,2.38Z"/><path class="h" d="M111.59,105.25h-1a2.26,2.26,0,0,1-2.31-2.21V84.11a2.26,2.26,0,0,1,2.31-2.21h1Z"/><path class="i" d="M111.59,130.72h-.89a2,2,0,0,1-2-1.93V118.27a2,2,0,0,1,2-1.92h.89Z"/><path class="j" d="M145.53,45.64h62.13v8.54a8.76,8.76,0,0,1-8.92,8.53H154.45a8.76,8.76,0,0,1-8.92-8.53Z"/><rect class="k" width="89.45" height="9.42" rx="2.29" transform="translate(132.89 173.73)"/><rect class="l" width="82.2" height="2.8" rx="0.68" transform="translate(138.74 177.04)"/><path class="m" d="M246.71,285.64c-24.57.62-20.48-38.09-19.89-64.22s3.83-41.68-15.67-41.68H139.73c19.5,0,16.26,15.55,15.67,41.68s-4.68,64.84,19.89,64.22Z"/><g class="n"><line class="o" x1="17.75" y2="0.23" transform="translate(161.84 193.37)"/><line class="o" x1="17.75" y2="0.23" transform="translate(161.84 209.7)"/><line class="o" x1="17.75" y2="0.23" transform="translate(161.84 226.03)"/><line class="o" x1="17.75" y2="0.22" transform="translate(161.51 242.36)"/><line class="o" x1="17.75" y2="0.22" transform="translate(161.51 258.69)"/><line class="o" x1="17.75" y2="0.22" transform="translate(164.17 275.02)"/></g><path class="p" d="M290.19,138.82c-23.77,5.6-6.13,34.22-6.14,77.14s6.09,69.06-18.47,69.68H175.29c24.56-.62,18.46-26.75,18.47-69.68,0-42.15-17-70.5,4.9-76.81a8.77,8.77,0,0,1,2.48-.33Z"/><path class="q" d="M341.3,286.88c-22.85,0-26-11.19-24.71-48.52s5.06-101.4-26.4-99.54H200.14c33.32-.88,27.48,62.2,26.16,99.53s1.85,48.52,24.71,48.52Z"/><g class="r"><line class="s" x1="35.88" y2="0.23" transform="translate(272.1 165.15)"/><line class="s" x1="35.88" y2="0.23" transform="translate(274.22 182.75)"/><line class="s" x1="35.88" y2="0.23" transform="translate(274.22 200.35)"/><line class="s" x1="35.88" y2="0.23" transform="translate(274.22 217.95)"/><line class="s" x1="35.88" y2="0.23" transform="translate(274.22 235.55)"/><line class="s" x1="35.88" y2="0.23" transform="translate(274.22 253.15)"/><line class="s" x1="17.75" y2="0.23" transform="translate(231.83 165.15)"/><line class="s" x1="17.75" y2="0.23" transform="translate(232.87 182.75)"/><line class="s" x1="17.75" y2="0.23" transform="translate(232.87 200.35)"/><line class="s" x1="17.75" y2="0.23" transform="translate(232.87 217.95)"/><line class="s" x1="17.75" y2="0.23" transform="translate(232.87 235.55)"/><line class="s" x1="17.75" y2="0.23" transform="translate(232.87 253.15)"/><line class="t" x1="76.08" y2="0.5" transform="translate(226.19 150.71)"/></g><path class="p" d="M360,247.07s-.37,39.81-23.22,39.81H251c22.85,0,23.21-39.81,23.21-39.81Z"/><circle class="b" cx="29.34" cy="29.34" r="29.34" transform="translate(58.431 176.308) rotate(-23.26)"/><circle class="k" cx="29.34" cy="29.34" r="29.34" transform="translate(62.499 174.942) rotate(-23.26)"/><circle class="u" cx="23.53" cy="23.53" r="23.53" transform="translate(67.807 192.057) rotate(-47.99)"/><path class="b" d="M122.1,184.62a23.53,23.53,0,0,0-41-6.82,23.523,23.523,0,1,1,39.81,25.07,24.73,24.73,0,0,0,1.17-18.25Z"/><path class="b" d="M94.42,179.15,92.57,185a2.05,2.05,0,0,1-.76,1l-4.94,3.57a2.08,2.08,0,0,0,0,3.37l5,3.55a2.05,2.05,0,0,1,.76,1.05l1.88,5.8a2.07,2.07,0,0,0,3.2,1l4.91-3.61a2,2,0,0,1,1.23-.41h6.1a2.07,2.07,0,0,0,2-2.73L110,191.87a2.11,2.11,0,0,1,0-1.29l1.9-5.8a2.08,2.08,0,0,0-2-2.72h-6.1a2.08,2.08,0,0,1-1.23-.4l-4.93-3.59a2.07,2.07,0,0,0-3.22,1.08Z"/><g class="v"><path class="w" d="M106.3,248a.15.15,0,0,0-.13,0,.29.29,0,0,0-.16.11l.11.06h0L106,248a.224.224,0,0,0,0,.29l.07-.11h0c.06,0,.12,0,.16-.14h0Z"/><path class="w" d="M119.3,242.83l-.08.12h0c0,.05-.09,0-.13.09l-.09.13a.22.22,0,0,0,.31-.08l-.12-.08h0l.12.08a.25.25,0,0,0,0-.12.15.15,0,0,0-.01-.14Z"/><path class="w" d="M96.52,231.17l-.17.05c0,.07-.06.11-.08.15a.24.24,0,0,0-.06.2l.19.07h.07a.34.34,0,0,0,.22-.2v-.14Z"/><path class="w" d="M104.85,215.46h-.1a.44.44,0,0,0-.27.24.19.19,0,0,0,.06.18h.32A.323.323,0,0,0,104.85,215.46Z"/><path class="w" d="M110.2,221.68v-.07a.38.38,0,0,0-.15-.24.4.4,0,0,0-.41,0l-.08.12v.21l.07.13h.05a.32.32,0,0,0,.44,0v-.05Z"/><path class="w" d="M104,223.73v-.19a.25.25,0,0,0-.2,0,.19.19,0,0,0-.11.12v.15h0s.17.11.27,0v-.08Z"/><path class="w" d="M96.75,223.6h0l-.21-.05a.24.24,0,0,0,0,.38h.16a.11.11,0,0,1,.08,0v-.22a.24.24,0,0,0-.03-.11Z"/><path class="w" d="M114.83,214.07v-.24a.39.39,0,0,0-.06-.11h-.19a.33.33,0,0,0-.08.25.26.26,0,0,0,.09.17.21.21,0,0,0,.24-.07Z"/><path class="w" d="M110.23,216.15a.22.22,0,0,0-.3,0v.15h0a.33.33,0,0,0,.1.12h.19a.25.25,0,0,0,.09-.19A.23.23,0,0,0,110.23,216.15Z"/><path class="w" d="M115,247.73a.27.27,0,0,0-.08-.21h-.18a.35.35,0,0,0,.06.41.17.17,0,0,0,.19,0v-.19S115,247.75,115,247.73Z"/><path class="w" d="M121.4,238.18h0a.47.47,0,0,0,.32-.3.46.46,0,0,0-.11-.43l-.16-.08h-.31a.62.62,0,0,0-.48.24.56.56,0,0,0-.06.44l.22.2h.16A.44.44,0,0,0,121.4,238.18Z"/><path class="w" d="M111.39,241.81v-.07a.39.39,0,0,0-.14-.21.35.35,0,0,0-.43.05v.34a.36.36,0,0,0,.14.19h.25l.08-.06.06-.08v-.06Z"/><path class="w" d="M128.55,230l-.06-.08a.49.49,0,0,0-.49,0v.06l-.06.12v.09a.41.41,0,0,0,.17.26.34.34,0,0,0,.29.06.4.4,0,0,0,.26-.22v-.1Z"/><path class="w" d="M123.46,226.52a.39.39,0,0,0-.08-.16h-.31a.45.45,0,0,0-.15.07v.33a.45.45,0,0,0,.07.14h.32a.44.44,0,0,0,.15-.08v-.3Z"/><path class="w" d="M114.45,243.15a.44.44,0,0,0-.08-.15H114a.32.32,0,0,0-.22.2v.24l.05.07.13.09h.27l.09-.06.06-.09v-.09Z"/><path class="w" d="M121.52,248.15a.23.23,0,0,0,0-.24h-.19a.18.18,0,0,1-.08.05v.25a.31.31,0,0,0,.1.16.18.18,0,0,0,.21,0v-.21S121.52,248.14,121.52,248.15Z"/><path class="w" d="M133.53,232.34a.23.23,0,0,0-.32,0v.18a.22.22,0,0,0,.05.14h.2a.42.42,0,0,0,.15-.06v-.11a.39.39,0,0,0-.08-.15Z"/><path class="w" d="M125.24,243.63a.2.2,0,0,0,0,.3h.15a.27.27,0,0,0,.16-.16v-.13A.22.22,0,0,0,125.24,243.63Z"/><path class="w" d="M124.61,238.74l.13-.06.08-.09a.35.35,0,0,0,0-.47h-.18a.3.3,0,0,0-.39.05h0v.11a.32.32,0,0,0,.11.4.51.51,0,0,0,.21.08Z"/><path class="w" d="M123.27,241.16l-.11-.06h-.28a.55.55,0,0,0-.15.41.35.35,0,0,0,.16.25.13.13,0,0,0,.06,0h.1l.16-.06.08-.07A.52.52,0,0,0,123.27,241.16Z"/><path class="w" d="M130.88,241.88a2,2,0,0,1-.52.23v.23a.66.66,0,0,0,.52-.09.37.37,0,0,0,.19-.26Z"/><path class="w" d="M129.64,236.44h-.17a.4.4,0,0,0-.16.16v.14h.06a.25.25,0,0,0,.34,0v-.18A.33.33,0,0,0,129.64,236.44Z"/><path class="w" d="M108.68,233.65h0a.53.53,0,0,0,0-.27v-.32a.59.59,0,0,0-.12-.21l-.21-.09h-.26a.49.49,0,0,0-.3.26v.75l.14.18a.45.45,0,0,0,.63,0l.07-.2Z"/><path class="w" d="M108.69,227.1a.32.32,0,0,0-.28,0,.28.28,0,0,0-.2.17v.17h0v.11l.06.1.08.06h.25a.31.31,0,0,0,.2-.27.35.35,0,0,0-.11-.34Z"/><path class="w" d="M114.38,225.48a.64.64,0,0,0-.27-.11h-.15l-.11.05-.12.1-.15.21v.37l.11.18.26.18h.37l.18-.11A.64.64,0,0,0,114.38,225.48Z"/><path class="w" d="M110.43,231.69v-.14l-.14-.18a.68.68,0,0,0-.76,0h0l-.12.14-.06.13v.18a.63.63,0,0,0,.23.34.58.58,0,0,0,.5.07.64.64,0,0,0,.42-.4Z"/><path class="w" d="M99.94,238.85h-.2l-.18.26.09.18a1.14,1.14,0,0,1,.23.05.59.59,0,0,0,.28,0l.12-.12a.37.37,0,0,0-.21-.3.2.2,0,0,1-.13-.07Z"/><path class="w" d="M123.64,220.1h.19l-.23-.27V220A.44.44,0,0,0,123.64,220.1Z"/><path class="w" d="M115.06,233.86h.17l.18-.11v-.09l.05-.19v-.2a.44.44,0,0,0-.11-.2l-.21-.09h-.23a.49.49,0,0,0-.3.27v.33l.11.16.12.09Z"/><path class="w" d="M113.93,236.74v-.27a.46.46,0,0,0-.22-.34.62.62,0,0,0-.51-.1l-.16.12-.09.13v.2a.56.56,0,0,0,.23.4.53.53,0,0,0,.62,0Z"/><path class="w" d="M108.27,241.75a.22.22,0,0,0-.13.08l.06.19a.21.21,0,0,0,.09.19h.18a.25.25,0,0,0,.1-.21.28.28,0,0,0-.3-.25Z"/><path class="w" d="M107.33,239.24a.33.33,0,0,0-.33,0,.32.32,0,0,0-.2.26v.25l.13.09h.27a.34.34,0,0,0,.18-.27.39.39,0,0,0-.05-.33Z"/><path class="w" d="M101.32,227h0a.215.215,0,0,0-.3.15h0a.26.26,0,0,0,.09.15c.11.08.26,0,.32,0v-.22Z"/><path class="w" d="M117.15,237.74l-.08-.1-.12-.09a.79.79,0,0,0-.59,0l-.13.08-.09.1-.06.15a.53.53,0,0,0,.22.5.6.6,0,0,0,.62,0,.55.55,0,0,0,.28-.53Z"/><path class="w" d="M119.39,223.05v-.3l-.06-.05a.37.37,0,0,0-.29-.06.59.59,0,0,0-.33.28v.34h0a.52.52,0,0,0,.35.11h.13a.48.48,0,0,0,.1-.25Z"/><path class="w" d="M116.74,231.71a.54.54,0,0,0,.12.28l.22.1h.19l.22-.12.09-.13v-.23l-.05-.17-.15-.18a.46.46,0,0,0-.62,0l-.07.21Z"/><path class="w" d="M130.59,249.81a.17.17,0,0,0-.07-.13l-.08.11h0s-.05.14,0,.15h0l-.07.11a.16.16,0,0,0,.22,0,.26.26,0,0,0,0-.24Z"/><path class="w" d="M123.76,234.1v-.33l-.08-.16-.11-.08a.64.64,0,0,0-.79,0l-.09.13v.28a.64.64,0,0,0,.25.35.6.6,0,0,0,.5.1A.53.53,0,0,0,123.76,234.1Z"/><path class="w" d="M103.75,232.7a.57.57,0,0,0-.08-.16h-.31a.3.3,0,0,0-.16.08v.3a.57.57,0,0,0,.08.16h.32a.44.44,0,0,0,.15-.08v-.3Z"/><path class="w" d="M129.55,224.25h.09a.29.29,0,0,0,.24-.22.2.2,0,0,0-.08-.23h-.09a.31.31,0,0,0-.24.22.22.22,0,0,0,.08.23Z"/><path class="w" d="M113.74,218.28h-.11a.5.5,0,0,0-.26.24v.15h0a.26.26,0,0,0,.36-.07.22.22,0,0,0,.01-.32Z"/><path class="w" d="M117.51,243.47a.21.21,0,0,0-.07.12.28.28,0,0,0,.07.2l.09-.09h0l-.1.09c.09.1.21.13.29.06l-.08-.1h0a.2.2,0,0,0-.1-.2h0Z"/><path class="w" d="M116,229l.1.12h0a.254.254,0,0,0,.06.16h0l.1.12a.23.23,0,0,0,0-.33l-.11.1h0l.11-.1a.26.26,0,0,0-.11-.07.19.19,0,0,0-.15,0Z"/><path class="w" d="M97.88,248.62v.2a.509.509,0,0,1,.13.12.31.31,0,0,0,.18.11l.12-.17a.19.19,0,0,1,0-.08.39.39,0,0,0-.14-.28H98Z"/><path class="w" d="M84.41,235.87l-.06.09a.45.45,0,0,0,.16.33.18.18,0,0,0,.2,0l.05-.15h0v-.17A.225.225,0,0,0,84.41,235.87Z"/><path class="w" d="M92.15,232.22h-.07a.33.33,0,0,0-.27.09.4.4,0,0,0-.14.4l.1.12.21.06h.15c.22-.18.18-.35.13-.44v-.06Z"/><path class="w" d="M92.48,239.05h-.19a.2.2,0,0,0-.09.18.19.19,0,0,0,.08.15h.17a.2.2,0,0,0,.07-.27h-.08Z"/><path class="w" d="M90.33,246.28h0l-.11.19a.29.29,0,0,0,.19.13.25.25,0,0,0,.2-.06h0v-.26l-.21-.07a.331.331,0,0,0-.07.07Z"/><path class="w" d="M85.8,225.43l-.15-.06h-.24l-.06.18a.31.31,0,0,0,.23.15.21.21,0,0,0,.18,0,.23.23,0,0,0,.04-.27Z"/><path class="w" d="M86.6,230.64a.23.23,0,0,0,0,.32h.15a.35.35,0,0,0,.16-.07v-.19a.29.29,0,0,0-.17-.14.28.28,0,0,0-.14.08Z"/><path class="w" d="M119.71,234.66a.28.28,0,0,0-.23,0v.18a.36.36,0,0,0,.43.07.18.18,0,0,0,.05-.2l-.18-.07Z"/><path class="w" d="M111.88,225.55h0a.48.48,0,0,0-.21-.4.46.46,0,0,0-.47,0l-.13.14-.06.14v.12h0a.66.66,0,0,0,.11.55.53.53,0,0,0,.42.18l.26-.16.07-.15h0A.45.45,0,0,0,111.88,225.55Z"/><path class="w" d="M112.74,236.64h-.07a.4.4,0,0,0-.25.08.36.36,0,0,0-.07.44l.09.08.24.06a.39.39,0,0,0,.23-.09h0v-.35l-.07-.09h0Z"/><path class="w" d="M105.63,216.07h-.1a.49.49,0,0,0-.17.48v.07l.11.1h.08a.38.38,0,0,0,.31-.09.35.35,0,0,0,.14-.28.45.45,0,0,0-.14-.32h-.1Z"/><path class="w" d="M100.72,220.22a.31.31,0,0,0-.17,0l-.08.09v.21a.43.43,0,0,0,0,.17l.09.08.23.06a.9.9,0,0,0,.16,0l.08-.09v-.22a.33.33,0,0,0,0-.17l-.09-.08Z"/><path class="w" d="M114.94,233.93a.3.3,0,0,0-.16,0l-.08.09v.23a.36.36,0,0,0,.13.28h.26l.12-.1v-.38l-.07-.08h-.09Z"/><path class="w" d="M122,228.22h0a.23.23,0,0,0-.25-.06v.19a.14.14,0,0,1,0,.09l.19.09H122a.35.35,0,0,0,.19-.06.19.19,0,0,0,0-.22H122Z"/><path class="w" d="M109.4,211.72a.23.23,0,0,0-.05.33h.19a.29.29,0,0,0,.15,0l.06-.2a.24.24,0,0,0,0-.16l-.09-.07a.32.32,0,0,0-.26.1Z"/><path class="w" d="M118.44,223.21a.23.23,0,0,0,.32,0v-.16a.29.29,0,0,0-.12-.21h-.13a.23.23,0,0,0-.07.37Z"/><path class="w" d="M113.34,222.48v-.14l-.06-.11c-.15-.18-.3-.23-.47-.15l-.07.1v.06h0a.32.32,0,0,0-.06.4v.05l.1.07a.33.33,0,0,0,.43,0,.62.62,0,0,0,.14-.19Z"/><path class="w" d="M115.4,224.5l-.09.09v.32a.59.59,0,0,0,.36.27.41.41,0,0,0,.3-.09v-.43a.53.53,0,0,0-.57-.16Z"/><path class="w" d="M118.25,217.05a2,2,0,0,1,.09.59l.23.07a.69.69,0,0,0,.05-.55.38.38,0,0,0-.21-.26Z"/><path class="w" d="M112.43,216.77l-.06.17h0a.31.31,0,0,0,.12.2h.2a.25.25,0,0,0,.08-.35h-.19a.3.3,0,0,0-.15-.02Z"/><path class="w" d="M103.78,237.09h0a.46.46,0,0,0-.29,0l-.1-.07h-.22a.66.66,0,0,0-.24.06l-.14.19-.05.19v.08a.53.53,0,0,0,.18.38l.19.07h.22l.17.08h.19l.23-.1a.48.48,0,0,0,.12-.65l-.19-.13Z"/><path class="w" d="M97.19,235.25a.3.3,0,0,0-.13.26.33.33,0,0,0,.11.25h.41l.08-.07v-.24a.36.36,0,0,0-.21-.28.39.39,0,0,0-.26.08Z"/><path class="w" d="M97.14,229.07a1.08,1.08,0,0,0-.18.24v.29l.07.14.17.21.19.1h.18l.21-.07.25-.2.1-.2v-.18l-.07-.21a.67.67,0,0,0-.92-.12Z"/><path class="w" d="M102.29,234.78h-.14l-.23.09a.69.69,0,0,0-.2.76h0l.1.16.12.1.18.06a.58.58,0,0,0,.4-.14.61.61,0,0,0,.22-.48.7.7,0,0,0-.29-.53Z"/><path class="w" d="M106.57,247.33l-.07.2.21.25h.21a1.2,1.2,0,0,1,.12-.23.57.57,0,0,0,.12-.27l-.09-.14a.31.31,0,0,0-.35.13.29.29,0,0,1-.15.06Z"/><path class="w" d="M94.32,218.25l.05-.19-.34.15.18.06A.26.26,0,0,0,94.32,218.25Z"/><path class="w" d="M105.77,230.72v-.17l-.07-.21-.07-.08-.18-.11h-.2a.53.53,0,0,0-.24.05l-.15.19v.27a.49.49,0,0,0,.18.38l.19.07h.16l.18-.06.13-.11Z"/><path class="w" d="M108.35,232.67l-.1-.09-.15-.06a.53.53,0,0,0-.41.12.72.72,0,0,0-.24.49l.08.2.11.13.18.09a.61.61,0,0,0,.47-.12.56.56,0,0,0,.15-.63Z"/><path class="w" d="M111.81,239.76a.17.17,0,0,0,0,.15h.2a.24.24,0,0,0,.22,0v-.18a.28.28,0,0,0-.18-.16A.31.31,0,0,0,111.81,239.76Z"/><path class="w" d="M109,240a.33.33,0,0,0-.14.32.35.35,0,0,0,.21.27h.28l.12-.11v-.27a.35.35,0,0,0-.22-.25.34.34,0,0,0-.25.04Z"/><path class="w" d="M95.07,242.65h0a.19.19,0,0,0,0,.34h0a.22.22,0,0,0,.18,0,.223.223,0,0,0,0-.32h-.22Z"/><path class="w" d="M110.25,229.71h-.12l-.12.1a.84.84,0,0,0-.16.59l.05.17.08.11.13.1a.54.54,0,0,0,.56-.08.61.61,0,0,0-.26-1.05Z"/><path class="w" d="M96.1,223.35h-.33a.4.4,0,0,0-.14.27.56.56,0,0,0,.2.41h.36a.53.53,0,0,0,.2-.32v-.14h0a.42.42,0,0,0-.23-.18Z"/><path class="w" d="M104.07,228.44a.61.61,0,0,0,.32-.05l.16-.2V228l-.06-.25-.1-.12-.22-.11H104l-.23.1a.49.49,0,0,0-.14.63l.19.14Z"/><path class="w" d="M126.15,219.55a.22.22,0,0,0-.16,0l.09.11h0a.988.988,0,0,0,.15.09h0l.09.11a.17.17,0,0,0,0-.24.26.26,0,0,0-.17-.07Z"/><path class="w" d="M108.44,222l-.18-.08h-.15l-.18.05-.12.08a.68.68,0,0,0-.23.8l.11.12.11.08.15.05a.62.62,0,0,0,.43-.16.68.68,0,0,0,.24-.47A.59.59,0,0,0,108.44,222Z"/><path class="w" d="M101.44,241.78a.41.41,0,0,0-.18,0l-.07.09v.21a.35.35,0,0,0,0,.18l.09.07h.21a.24.24,0,0,0,.17,0l.08-.09v-.22a.33.33,0,0,0,0-.17l-.09-.08Z"/><path class="w" d="M100.15,213.46v-.08a.33.33,0,0,0-.15-.31.24.24,0,0,0-.26,0v.08a.35.35,0,0,0,.16.31.23.23,0,0,0,.25,0Z"/><path class="w" d="M89.73,227.7v.11a.45.45,0,0,0,.17.33H90a.27.27,0,0,0,0-.38.24.24,0,0,0-.27-.06Z"/></g><rect class="u" width="68.66" height="8.71" transform="translate(58 270.02)"/><rect class="b" width="13.06" height="8.71" transform="translate(65.1 270.02)"/><rect class="k" width="9.58" height="8.71" transform="translate(108.91 270.02)"/><rect class="u" width="68.66" height="8.71" transform="translate(58 252.59)"/><rect class="b" width="13.06" height="8.71" transform="translate(65.1 252.59)"/><rect class="k" width="9.58" height="8.71" transform="translate(108.91 252.59)"/><rect class="u" width="68.66" height="8.71" transform="translate(66.17 235.16)"/><rect class="b" width="13.06" height="8.71" transform="translate(73.28 235.16)"/><rect class="k" width="9.58" height="8.71" transform="translate(117.09 235.16)"/><rect class="u" width="68.66" height="8.71" transform="translate(66.17 243.87)"/><rect class="b" width="13.06" height="8.71" transform="translate(73.28 243.87)"/><rect class="k" width="9.58" height="8.71" transform="translate(117.09 243.87)"/><rect class="u" width="68.66" height="8.71" transform="translate(66.17 261.3)"/><rect class="b" width="13.06" height="8.71" transform="translate(73.28 261.3)"/><rect class="k" width="9.58" height="8.71" transform="translate(117.09 261.3)"/><rect class="u" width="68.66" height="8.71" transform="translate(66.17 278.73)"/><rect class="b" width="13.06" height="8.71" transform="translate(73.28 278.73)"/><rect class="k" width="9.58" height="8.71" transform="translate(117.09 278.73)"/><line class="x" x1="60.49" transform="translate(66.17 252.59)"/><line class="x" x1="68.67" transform="translate(66.17 243.87)"/><line class="x" x1="60.49" transform="translate(66.17 270.02)"/><line class="x" x1="60.49" transform="translate(66.17 261.3)"/><line class="x" x1="60.49" transform="translate(67.19 278.68)"/><rect class="u" width="68.66" height="8.71" transform="translate(58 226.44)"/><rect class="b" width="13.06" height="8.71" transform="translate(65.1 226.44)"/><rect class="k" width="9.58" height="8.71" transform="translate(108.91 226.44)"/><rect class="u" width="68.66" height="8.71" transform="translate(66.17 217.73)"/><rect class="b" width="13.06" height="8.71" transform="translate(73.28 217.73)"/><rect class="k" width="9.58" height="8.71" transform="translate(117.09 217.73)"/><line class="x" x1="60.49" transform="translate(66.17 226.44)"/><line class="x" x1="60.49" transform="translate(66.17 235.16)"/><text class="y" transform="translate(133.47 119.91)"><tspan x="0" y="0">Claim</tspan></text><rect class="z" width="34.23" height="3.04" rx="1.52" transform="translate(162.24 54.85)"/><circle class="z" cx="1.52" cy="1.52" r="1.52" transform="translate(156.67 54.85)"/></svg>