<svg xmlns="http://www.w3.org/2000/svg" xmlns:xlink="http://www.w3.org/1999/xlink" width="406" height="309.66" viewBox="0 0 406 309.66"><defs><style>.a{fill:#fac823;}.b{fill:url(#a);}.c{fill:#ffdede;}.d{fill:url(#b);}.e{fill:#2539e5;}.f,.g,.h,.j,.k,.m{fill:none;}.f,.g,.h,.j,.m{stroke:#fff;}.f,.g{stroke-width:6px;}.g,.h,.j,.m{stroke-linecap:round;stroke-linejoin:round;}.h{stroke-width:2px;}.i{clip-path:url(#c);}.j{stroke-width:4.28px;}.j,.m{opacity:0.5;}.l{clip-path:url(#e);}.m{stroke-width:5px;}.n{fill:#ff796d;}</style><linearGradient id="a" y1="0.5" x2="1" y2="0.5" gradientUnits="objectBoundingBox"><stop offset="0" stop-color="#ff2cdb"/><stop offset="1" stop-color="#ff8b26"/></linearGradient><linearGradient id="b" x1="-0.064" y1="0.919" x2="1.064" y2="0.081" gradientUnits="objectBoundingBox"><stop offset="0" stop-color="#ff002b"/><stop offset="1" stop-color="#ff2cdb"/></linearGradient><clipPath id="c"><rect class="a" width="175.66" height="37.05" rx="18.52" transform="translate(65.62 177.52)"/></clipPath><clipPath id="e"><path class="b" d="M175.18,214.8H84.13a18.64,18.64,0,0,1-18.65-18.64h0a18.64,18.64,0,0,1,18.65-18.64h91.05a18.78,18.78,0,0,1,18.75,18.69h0a18.71,18.71,0,0,1-18.75,18.59Z"/></clipPath></defs><rect class="c" width="406" height="294" rx="30" transform="translate(0 15.66)"/><rect class="d" width="174.87" height="235.23" rx="13.5" transform="translate(165.65 55.95)"/><rect class="e" width="155.35" height="216.72" rx="7.23" transform="translate(175.41 65.13)"/><path class="f" d="M283.33,158.66a30.77,30.77,0,0,0-60.49,0"/><circle class="f" cx="14.52" cy="14.52" r="14.52" transform="translate(238.56 101.04)"/><rect class="f" width="67.2" height="68.59" rx="7.31" transform="translate(219.48 90.07)"/><line class="g" x2="77.41" transform="translate(203.46 204.29)"/><line class="g" x2="77.41" transform="translate(203.46 186.7)"/><line class="g" x2="77.22" transform="translate(203.65 221.88)"/><line class="g" x2="78.37" transform="translate(203.33 239.47)"/><line class="g" x2="78.37" transform="translate(203.33 257.06)"/><ellipse class="h" cx="5.53" cy="5.66" rx="5.53" ry="5.66" transform="translate(291.78 181.04)"/><path class="h" d="M295.17,186.79l1.36,1.4,2.87-2.94"/><ellipse class="h" cx="5.53" cy="5.66" rx="5.53" ry="5.66" transform="translate(291.78 198.63)"/><path class="h" d="M295.17,204.38l1.36,1.4,2.87-2.94"/><ellipse class="h" cx="5.53" cy="5.66" rx="5.53" ry="5.66" transform="translate(291.78 233.81)"/><path class="h" d="M295.17,239.57l1.36,1.39L299.4,238"/><ellipse class="h" cx="5.53" cy="5.66" rx="5.53" ry="5.66" transform="translate(291.78 216.22)"/><path class="h" d="M295.17,222l1.36,1.4,2.87-2.94"/><ellipse class="h" cx="5.53" cy="5.66" rx="5.53" ry="5.66" transform="translate(291.78 251.4)"/><path class="h" d="M295.17,257.16l1.36,1.39,2.87-2.94"/><path class="a" d="M274.68,49.13h-2.3a19.46,19.46,0,0,0-38.6,0h-2.29A20.68,20.68,0,0,0,210.8,69.81a3.33,3.33,0,0,0,3.32,3.33H292a3.33,3.33,0,0,0,3.33-3.33,20.68,20.68,0,0,0-20.65-20.68Zm-21.6.54a5.9,5.9,0,1,1,5.9-5.9,5.9,5.9,0,0,1-5.9,5.9Z"/><line class="h" x2="54.97" transform="translate(225.6 57.53)"/><rect class="a" width="175.66" height="37.05" rx="18.52" transform="translate(65.62 177.52)"/><g class="i"><line class="j" x1="20.63" y2="52.05" transform="translate(116.27 171.38)"/><line class="j" x1="20.63" y2="52.05" transform="translate(136.39 171.38)"/></g><path class="k" d="M222.86,214.63H156.11a18.55,18.55,0,0,1-18.64-18.46h0a18.54,18.54,0,0,1,18.64-18.46h66.75a18.69,18.69,0,0,1,18.76,18.5h0A18.62,18.62,0,0,1,222.86,214.63Z"/><path class="b" d="M175.18,214.8H84.13a18.64,18.64,0,0,1-18.65-18.64h0a18.64,18.64,0,0,1,18.65-18.64h91.05a18.78,18.78,0,0,1,18.75,18.69h0a18.71,18.71,0,0,1-18.75,18.59Z"/><g class="l"><line class="m" x1="30.56" y2="52.04" transform="translate(64.45 170.14)"/><line class="m" x1="30.57" y2="52.04" transform="translate(84.44 170.14)"/><line class="m" x1="30.57" y2="52.04" transform="translate(104.43 170.14)"/><line class="m" x1="30.57" y2="52.04" transform="translate(124.42 170.14)"/><line class="m" x1="30.57" y2="52.04" transform="translate(144.41 170.14)"/><line class="m" x1="30.57" y2="52.04" transform="translate(164.4 170.14)"/></g><path class="n" d="M117.6,111.67h0a7.69,7.69,0,0,1,7.69-7.69h0a7.68,7.68,0,0,1-7.69-7.68h0a7.68,7.68,0,0,1-7.69,7.68h0a7.69,7.69,0,0,1,7.69,7.69Z"/><path class="n" d="M44.65,157.59h0A11.38,11.38,0,0,1,56,146.22h0a11.39,11.39,0,0,1-11.38-11.38h0a11.37,11.37,0,0,1-11.37,11.38h0a11.36,11.36,0,0,1,11.37,11.37Z"/><path class="n" d="M52,31.06h0A15.53,15.53,0,0,1,67.5,15.53h0A15.53,15.53,0,0,1,52,0h0a15.53,15.53,0,0,1-4.559,10.992,15.53,15.53,0,0,1-11,4.538h0A15.53,15.53,0,0,1,52,31.06Z"/><path class="n" d="M369.42,233.36h0a11.85,11.85,0,0,1,11.85-11.85h0a11.86,11.86,0,0,1-11.85-11.85h0a11.85,11.85,0,0,1-11.85,11.85h0a11.84,11.84,0,0,1,11.85,11.85Z"/><path class="n" d="M99,275.52h0a7.69,7.69,0,0,1,7.68-7.67h0A7.68,7.68,0,0,1,99,260.18h0a7.66,7.66,0,0,1-7.67,7.67h0A7.67,7.67,0,0,1,99,275.52Z"/></svg>