<svg xmlns="http://www.w3.org/2000/svg" xmlns:xlink="http://www.w3.org/1999/xlink" width="190" height="190" viewBox="0 0 190 190"><defs><style>.a,.i{fill:none;}.b,.d,.j{isolation:isolate;}.c{clip-path:url(#a);}.d{fill:#fff3e8;opacity:0.7;}.e{fill:#2539e5;}.f{fill:#c0f1f9;}.g{fill:#eaf1f9;}.h{clip-path:url(#b);}.i{stroke:#95e6f9;stroke-miterlimit:10;stroke-width:7px;}.j{opacity:0.8;fill:url(#c);}.k{fill:url(#d);}.l{fill:#fff;}</style><clipPath id="a"><rect class="a" width="190" height="190" transform="translate(-3.69 -10.66)"/></clipPath><clipPath id="b"><rect class="a" width="119.41" height="72.07" rx="17.98" transform="translate(59.947 154.433) rotate(-89.89)"/></clipPath><linearGradient id="c" x1="-9.403" y1="-3.151" x2="-9.398" y2="-3.147" gradientUnits="objectBoundingBox"><stop offset="0" stop-opacity="0.6"/><stop offset="0.46" stop-color="#231a69" stop-opacity="0.31"/><stop offset="1" stop-color="#3d2db3" stop-opacity="0.102"/></linearGradient><linearGradient id="d" x1="0.014" y1="0.809" x2="0.832" y2="0.171" gradientUnits="objectBoundingBox"><stop offset="0" stop-color="#ff002b"/><stop offset="1" stop-color="#ff2cdb"/></linearGradient></defs><g class="b" transform="translate(3.69 10.66)"><g class="c"><path class="d" d="M79.7,186.62c-22.2,0-44.15-9.9-57.87-24.54A65.19,65.19,0,0,1,39.1,59c22.47-11.88,56.11-11.91,79.26,1.18,11,6.24,19.61,15,30.24,21.67,11.76,7.39,26.5,12.72,33.57,23.28,4.76,7.1,5.13,15.62,2.57,23.17s-7.85,14.22-13.9,20.23C149.88,169.31,114.38,186.55,79.7,186.62Z" transform="translate(-3.69 -10.66)"/><rect class="e" width="127.82" height="80.48" rx="21.94" transform="translate(55.739 158.605) rotate(-89.89)"/><path class="f" d="M112.82,45.78,83,45.71A19.16,19.16,0,0,0,63.83,64.8V79.19l52.82-9.78Z" transform="translate(-3.69 -10.66)"/><path class="g" d="M122.42,101.8l13.44-19.45V64.98a19.15,19.15,0,0,0-19.09-19.19h-4l8.73,54.44Z" transform="translate(-3.69 -10.66)"/><path class="f" d="M135.75,126.26l.11-43.91L122.42,101.8Z" transform="translate(-3.69 -10.66)"/><path class="g" d="M95,137.93l.24.16,15.4-18.69L63.72,108.06l-.09,38.38A19.15,19.15,0,0,0,74.2,163.57l21-25.48Z" transform="translate(-3.69 -10.66)"/><path class="g" d="M135.7,146.61l.05-19.85L122.42,102.3,110.6,119.39,95.2,138.08l34.26,22.58a19,19,0,0,0,6.24-14.05Z" transform="translate(-3.69 -10.66)"/><path class="f" d="M74.56,164.68a19,19,0,0,0,8.52,2l33.8.08a19,19,0,0,0,12.94-5L95.56,139.19Z" transform="translate(-3.69 -10.66)"/><path class="e" d="M106.64,160.18h-14a2.1,2.1,0,1,1,0-4.2h14a2.1,2.1,0,0,1,0,4.2Z" transform="translate(-3.69 -10.66)"/><g class="h"><path class="e" d="M63.79,79.19l53.48-12.14,5.15,34.75-15.19,17.31L61.71,107.9Z" transform="translate(-3.69 -10.66)"/><path class="i" d="M162.86,43.28,110.6,118.9l-84-20.33" transform="translate(-3.69 -10.66)"/><line class="i" x1="51.36" y2="62.33" transform="translate(55.55 108.24)"/><line class="i" x2="50.44" y2="33.25" transform="translate(91.27 126.76)"/><path class="i" d="M109.61,25.82l11.94,74.4,28,51.41" transform="translate(-3.69 -10.66)"/><line class="i" x1="70.44" y2="16.4" transform="translate(41.71 56.41)"/><path class="j" d="M143,22c-2.12-6.07-7.38-10.18-15.9-10.56h-2.93c-8.91.34-18.68,4.42-27.47,10.46-19.2,13.19-30,33.44-25.63,46.84l7.5,23a1.81,1.81,0,0,0,2,1.54,6.23,6.23,0,0,0,3.69-1.52L117,68.82C136.13,55.46,147.63,35.22,143,22Z" transform="translate(-3.69 -10.66)"/></g><path class="e" d="M81.57,41.5v4.44l36.61.07a17.52,17.52,0,0,1,17.46,17.53l-.17,84A17.54,17.54,0,0,1,118,165l-36.61-.08a17.52,17.52,0,0,1-17.46-17.53l.17-83.94A17.52,17.52,0,0,1,81.57,45.94V41.5m0,0A21.93,21.93,0,0,0,59.64,63.39l-.17,84a21.93,21.93,0,0,0,21.89,22l36.61.08h0A21.94,21.94,0,0,0,140,147.5l.17-83.95a21.93,21.93,0,0,0-21.89-22L81.62,41.5Z" transform="translate(-3.69 -10.66)"/><path class="k" d="M104.13,21.25A30.79,30.79,0,0,0,82.44,10.7H79.51A30.85,30.85,0,0,0,57.77,21.14c-12,13.2-11.67,33.44,0,46.85l20.1,23a3.44,3.44,0,0,0,4.77,1,3.4,3.4,0,0,0,1-.94L103.85,68.1C115.64,54.75,116,34.51,104.13,21.25Z" transform="translate(-3.69 -10.66)"/><circle class="l" cx="15.05" cy="15.05" r="15.05" transform="translate(62.17 15.26)"/></g></g></svg>