<svg xmlns="http://www.w3.org/2000/svg" xmlns:xlink="http://www.w3.org/1999/xlink" width="190" height="190" viewBox="0 0 190 190"><defs><style>.a,.h{fill:none;}.b{clip-path:url(#a);}.c{fill:#e8f6ff;opacity:0.7;isolation:isolate;}.d{fill:#2539e5;}.e{fill:url(#b);}.f{fill:#fff;}.g{fill:#eaf1f9;}.g,.h{stroke:#2539e5;stroke-linecap:round;stroke-linejoin:round;stroke-width:4.44px;}</style><clipPath id="a"><rect class="a" width="190" height="190" transform="translate(0.76 -14.71)"/></clipPath><linearGradient id="b" x1="0.056" y1="0.964" x2="0.944" y2="0.095" gradientUnits="objectBoundingBox"><stop offset="0" stop-color="#ff002b"/><stop offset="1" stop-color="#ff2cdb"/></linearGradient></defs><g transform="translate(-0.76 14.71)"><g class="b"><path class="c" d="M180.11,53.87A34.86,34.86,0,0,0,151,41c-21.05,1.18-29.27,21.48-47.89,27.11-18.79,5.69-38.25-6.72-57.89-6.85C14.22,61.05-1.18,85-.75,111.33c.62,38.22,34.72,66.72,73.46,73.6,56.43,10,113-25.55,117.42-79.68C191.52,88.31,191.54,68.13,180.11,53.87Z" transform="translate(0.76 -14.71)"/><path class="d" d="M170.63,74c-1.27,4.73-5.19,10.16-8.76,11.46s-5-4-5.4-12.87c-.53-8.94,1.54-14.41,7.07-11.57S172.11,69.36,170.63,74Z" transform="translate(0.76 -14.71)"/><path class="d" d="M48.45,138H69.27v8.12a3.52,3.52,0,0,1-3.51,3.52H52a3.53,3.53,0,0,1-3.52-3.52h0V138Z" transform="translate(0.76 -14.71)"/><path class="d" d="M120,138h20.8v8.12a3.52,3.52,0,0,1-3.51,3.52h-13.8a3.53,3.53,0,0,1-3.52-3.52h0V138Z" transform="translate(0.76 -14.71)"/><path class="d" d="M18.61,74c1.27,4.73,5.19,10.16,8.77,11.46s5-4,5.4-12.87C33.3,63.62,31.23,58.15,25.7,61S17.13,69.36,18.61,74Z" transform="translate(0.76 -14.71)"/><path class="e" d="M123.56,14.71H65.68a31.63,31.63,0,0,0-31.59,31.6v73.14a19.13,19.13,0,0,0,19.1,19.11h82.86a19.13,19.13,0,0,0,19.1-19.11V46.31a31.63,31.63,0,0,0-31.59-31.6Z" transform="translate(0.76 -14.71)"/><rect class="d" width="40.78" height="8.16" rx="3.29" transform="translate(74.99 105.3)"/><rect class="f" width="55.72" height="6.12" rx="2.87" transform="translate(67.52 8.82)"/><path class="g" d="M146.18,38.84V84.76c-57.85,24.5-103.12,0-103.12,0V38.84S85.19,29.65,146.18,38.84Z" transform="translate(0.76 -14.71)"/><path class="h" d="M146.18,38.84V84.76c-57.85,24.5-103.12,0-103.12,0V38.84S85.19,29.65,146.18,38.84Z" transform="translate(0.76 -14.71)"/><line class="h" y1="37.32" x2="25.71" transform="translate(93.7 41.17)"/><line class="h" y1="40.88" x2="28.16" transform="translate(87.21 21.44)"/><line class="h" x1="6.65" y2="9.45" transform="translate(125 24.22)"/><path class="f" d="M74,111.79c-1,3.2-9.84,5.51-19.47,6.18s-13-3.14-12.87-11.69c-.21-8.65,4.31-12.47,15.41-7.94S75.44,108.71,74,111.79Z" transform="translate(0.76 -14.71)"/><path class="f" d="M115.28,111.79c1,3.2,9.84,5.51,19.47,6.18s13-3.14,12.87-11.69c.22-8.65-4.31-12.47-15.4-7.94S113.8,108.71,115.28,111.79Z" transform="translate(0.76 -14.71)"/></g></g></svg>