<svg xmlns="http://www.w3.org/2000/svg" xmlns:xlink="http://www.w3.org/1999/xlink" width="190" height="190" viewBox="0 0 190 190"><defs><style>.a,.e,.g,.j,.k{fill:none;}.b{clip-path:url(#a);}.c{fill:#ffdede;opacity:0.7;isolation:isolate;}.d{fill:#95e6f9;}.d,.e,.f,.g,.k{stroke:#2539e5;}.d,.e,.f,.k{stroke-linecap:round;stroke-linejoin:round;}.d,.e{stroke-width:4px;}.f{fill:#eaf1f9;}.f,.k{stroke-width:4.44px;}.g,.j{stroke-miterlimit:10;stroke-width:8.88px;}.h{fill:url(#b);}.i{fill:#2539e5;}.j{stroke:#fff;}</style><clipPath id="a"><rect class="a" width="190" height="190" transform="translate(-1.41 -9.88)"/></clipPath><linearGradient id="b" x1="0.159" y1="1.533" x2="0.738" y2="-0.532" gradientUnits="objectBoundingBox"><stop offset="0" stop-color="#ff002b"/><stop offset="1" stop-color="#ff2cdb"/></linearGradient></defs><g transform="translate(1.41 9.88)"><g class="b"><path class="c" d="M1.46,120.21c-.55,13.5,4.07,27.67,11.94,38.73a66.94,66.94,0,0,0,51.69,27.65c19.75.55,38.76-6.81,58.34-8.17,38.56-2.67,70.22-26.45,64.48-67.86-4.93-35.48-31.45-81.64-73-77.79C99.09,34.24,84.54,41.61,71.17,50,49.88,63.29,24.69,75.11,9.61,95.73a44,44,0,0,0-8.15,24.48Z" transform="translate(-1.41 -9.88)"/><path class="a" d="M1.46,120.21c-.55,13.5,4.07,27.67,11.94,38.73a66.94,66.94,0,0,0,51.69,27.65c19.75.55,38.76-6.81,58.34-8.17,38.56-2.67,70.22-26.45,64.48-67.86-4.93-35.48-31.45-81.64-73-77.79C99.09,34.24,84.54,41.61,71.17,50,49.88,63.29,24.69,75.11,9.61,95.73a44,44,0,0,0-8.15,24.48Z" transform="translate(-1.41 -9.88)"/><path class="d" d="M89.3,158.11V15a3.07,3.07,0,0,1,3.07-3.07H95.8A3.07,3.07,0,0,1,98.87,15V158.11" transform="translate(-1.41 -9.88)"/><path class="a" d="M89.3,158.11V15a3.07,3.07,0,0,1,3.07-3.07H95.8A3.07,3.07,0,0,1,98.87,15V158.11" transform="translate(-1.41 -9.88)"/><path class="e" d="M89.3,158.11V15a3.07,3.07,0,0,1,3.07-3.07H95.8A3.07,3.07,0,0,1,98.87,15V158.11" transform="translate(-1.41 -9.88)"/><path class="f" d="M146.35,93.16H40.07L27.38,78.1,40.07,63H146.35Z" transform="translate(-1.41 -9.88)"/><line class="g" x2="54.75" transform="translate(53.33 68.21)"/><line class="g" x2="12.97" transform="translate(114.72 68.21)"/><path class="h" d="M166.62,36.3,153.93,21.23a2.21,2.21,0,0,0-1.7-.78H46a2.21,2.21,0,0,0-2.22,2.22V52.79A2.21,2.21,0,0,0,46,55H152.23a2.22,2.22,0,0,0,1.7-.79l12.69-15.06a2.21,2.21,0,0,0,0-2.85Z" transform="translate(-1.41 -9.88)"/><path class="i" d="M93.45,153.52c-9.14.51-16.64,4.19-17.35,8.37-.73,4.59,4.06,5.08,17.25,5,17-.08,20.73-1.65,17-7.5C106.77,154.5,102.09,153.8,93.45,153.52Z" transform="translate(-1.41 -9.88)"/><path class="a" d="M46,52.79H152.23l12.69-15.06L152.23,22.67H46Z" transform="translate(-1.41 -9.88)"/><line class="j" x2="18.02" transform="translate(60.87 27.85)"/><path class="a" d="M146.35,93.16H40.07L27.38,78.1,40.07,63H146.35Z" transform="translate(-1.41 -9.88)"/><line class="j" x2="18.02" transform="translate(60.87 27.85)"/><line class="j" x2="14.04" transform="translate(127.16 27.85)"/><line class="j" x2="37.53" transform="translate(84.44 27.85)"/><path class="k" d="M146.35,93.16H40.07L27.38,78.1,40.07,63H146.35Z" transform="translate(-1.41 -9.88)"/><path class="a" d="M93.45,153.52c-9.14.51-16.64,4.19-17.35,8.37-.73,4.59,4.06,5.08,17.25,5,17-.08,20.73-1.65,17-7.5C106.77,154.5,102.09,153.8,93.45,153.52Z" transform="translate(-1.41 -9.88)"/></g></g></svg>